<svg width="1920" height="1080" viewBox="0 0 1920 1080" xmlns="http://www.w3.org/2000/svg"><rect width="1920" height="1080" fill="#393e46"/><path d="M 0,1080 C 0,1080 0,180 0,180 C 95.7689617083947,181.15427098674522 191.5379234167894,182.30854197349043 281,197 C 370.4620765832106,211.69145802650957 453.61726804123714,239.92010309278348 536,233 C 618.3827319587629,226.07989690721652 699.9930044182622,184.01104565537557 808,170 C 916.0069955817378,155.98895434462443 1050.4107142857142,170.03571428571428 1147,180 C 1243.5892857142858,189.96428571428572 1302.364138438881,195.8460972017673 1369,184 C 1435.635861561119,172.1539027982327 1510.1327319587624,142.5798969072165 1618,147 C 1725.8672680412376,151.4201030927835 1867.104933726068,189.83431516936673 1923,201 C 1978.895066273932,212.16568483063327 1949.4475331369658,196.08284241531663 1920,180 C 1920,180 1920,1080 1920,1080 Z" fill="#41c9e2" opacity="0.09999999999999999"/><path d="M 0,1080 C 0,1080 0,360 0,360 C 107.1262886597938,365.6266568483063 214.2525773195876,371.2533136966127 312,362 C 409.7474226804124,352.7466863033873 498.11597938144337,328.61340206185565 595,318 C 691.8840206185566,307.38659793814435 797.2835051546392,310.29307805596466 873,338 C 948.7164948453608,365.70692194403534 994.75,418.2142857142857 1084,405 C 1173.25,391.7857142857143 1305.7164948453608,312.8497790868925 1403,296 C 1500.2835051546392,279.1502209131075 1562.3840206185569,324.3865979381443 1648,352 C 1733.6159793814431,379.6134020618557 1842.7474226804122,389.6038291605302 1892,388 C 1941.2525773195878,386.3961708394698 1930.6262886597938,373.19808541973487 1920,360 C 1920,360 1920,1080 1920,1080 Z" fill="#41c9e2" opacity="0.19999999999999998"/><path d="M 0,1080 C 0,1080 0,540 0,540 C 82.96410162002945,578.3488586156112 165.9282032400589,616.6977172312224 267,593 C 368.0717967599411,569.3022827687776 487.2512886597939,483.5579896907216 594,478 C 700.7487113402061,472.4420103092784 795.0666421207658,547.070324005891 870,556 C 944.9333578792342,564.929675994109 1000.4821428571427,508.1607142857143 1094,499 C 1187.5178571428573,489.8392857142857 1319.0047864506628,528.2868188512518 1409,545 C 1498.9952135493372,561.7131811487482 1547.498711340206,556.6920103092784 1640,560 C 1732.501288659794,563.3079896907216 1869.0003681885125,574.9451399116348 1923,573 C 1976.9996318114875,571.0548600883652 1948.4998159057436,555.5274300441827 1920,540 C 1920,540 1920,1080 1920,1080 Z" fill="#41c9e2" opacity="0.3"/><path d="M 0,1080 C 0,1080 0,720 0,720 C 77.12665684830634,721.8615611192931 154.25331369661268,723.7231222385861 246,734 C 337.7466863033873,744.2768777614139 444.1134020618557,762.9690721649484 535,763 C 625.8865979381443,763.0309278350516 701.2930780559645,744.40058910162 783,722 C 864.7069219440355,699.59941089838 952.714285714286,673.4285714285714 1071,676 C 1189.285714285714,678.5714285714286 1337.8497790868926,709.8851251840942 1421,707 C 1504.1502209131074,704.1148748159058 1521.8865979381442,667.0309278350516 1613,658 C 1704.1134020618558,648.9690721649484 1868.6038291605305,667.9911634756996 1932,683 C 1995.3961708394695,698.0088365243004 1957.6980854197348,709.0044182621502 1920,720 C 1920,720 1920,1080 1920,1080 Z" fill="#41c9e2" opacity="0.39999999999999997"/><path d="M 0,1080 C 0,1080 0,900 0,900 C 103.18611929307806,913.2888438880707 206.37223858615613,926.5776877761413 296,907 C 385.62776141384387,887.4223122238587 461.69716494845363,834.9780927835053 540,854 C 618.3028350515464,873.0219072164947 698.8391016200294,963.509941089838 799,964 C 899.1608983799706,964.490058910162 1018.9464285714289,874.9821428571429 1124,865 C 1229.053571428571,855.0178571428571 1319.375184094256,924.5614874815907 1385,932 C 1450.624815905744,939.4385125184093 1491.5528350515467,884.7719072164948 1595,865 C 1698.4471649484533,845.2280927835052 1864.4134756995581,860.3508836524301 1929,872 C 1993.5865243004419,883.6491163475699 1956.793262150221,891.8245581737849 1920,900 C 1920,900 1920,1080 1920,1080 Z" fill="#41c9e2" opacity="0.49999999999999994"/></svg>